<svg xmlns="http://www.w3.org/2000/svg" xmlns:xlink="http://www.w3.org/1999/xlink" viewBox="0 0 614.52 421.17"><defs><style>.cls-1{fill:none;}.cls-2{clip-path:url(#clip-path);}.cls-3{opacity:0.2;}.cls-4{fill:#1c2c4c;}.cls-5{opacity:0.07;}</style><clipPath id="clip-path"><rect class="cls-1" width="614.52" height="421.17"/></clipPath></defs><g id="Layer_1" data-name="Layer 1"><g class="cls-2"><g class="cls-3"><path class="cls-4" d="M471.12,139.55a47.75,47.75,0,0,0,7.21,4.08c2.07,1,2.14.81,3.63-1.1.32-.4.69-.75,1.35-1.47a19.11,19.11,0,0,1,2.11,2.22c2.34,3.44,5,6.75,6.82,10.45,2.26,4.47,3.87,9.27,5.73,13.94.41,1,.51,2.23,2.12,2.72a13.16,13.16,0,0,0,1.54-2.53,20.58,20.58,0,0,0,1.13-4.53c.58-5.09.94-10.2,1.55-15.29q.87-7.23,2.11-14.42a11.38,11.38,0,0,1,1.66-4.05c1.39-2.15,3.19-2.53,5.37-1.17a44.76,44.76,0,0,1,3.85,3.08c.49.39,1.05.72,1.69,1.16a16.83,16.83,0,0,0,1.61-7.83c-.06-4.1-2.31-7.25-5.88-8.29-3.74-1.09-6.87.28-9.21,4.07a22.73,22.73,0,0,0-3.27,9c-.84,6.45-1.48,12.93-2.2,19.39-.2,1.82-.37,3.65-.55,5.48a3.11,3.11,0,0,1-1.26-1.52c-1.92-4.18-3.68-8.43-5.78-12.52a38.69,38.69,0,0,0-7.63-10.18,18.08,18.08,0,0,0-7.22-4.52c-2.32-.71-2.92-.55-4,1.54-1.29,2.46-2.48,5-3.62,7.51-1,2.17-.84,3.37,1.15,4.77"/><path class="cls-4" d="M421.94,226l-1.05-.19a16.23,16.23,0,0,0-1.13,1.79c-3.74,8.47-7.76,16.84-11.08,25.47-1.6,4.2-2.15,8.85-2.67,13.36a26,26,0,0,0,2,14.26c2,4.33,4.67,8.08,9.94,8.26,5.56.17,8.89-3.38,11.24-7.92a12.58,12.58,0,0,0,1.39-5c.17-3.51,0-7-.13-10.57,0-.88-.6-1.75-1.15-3.32-.94,2.19-1.47,3.7-2.2,5.09a38.3,38.3,0,0,1-3.77,6.43c-2.93,3.52-6.27,3.11-7.68-1.17a31.52,31.52,0,0,1-1.45-10.36c.19-8.76,3-17,5.21-25.44.93-3.53,1.7-7.1,2.52-10.65"/><path class="cls-4" d="M320.37,185.28c12-8.5,24.11-16.89,36-25.56,21.2-15.49,42-31.53,64.1-45.8,4.8-3.1,6.93-11.41,4.86-17.09-2.37,2.22-4.47,4.61-7,6.43q-27.69,20.16-55.54,40.12c-14.45,10.35-28.91,20.67-43.48,30.83-5.78,4-7.7,12.85-3.68,19,1.56-5.07,2.23-6.12,4.73-7.89"/><path class="cls-4" d="M419.82,152c-.09.11-1.78,6.52-1.85,7.08-.17,1.19-.43,3.07-.41,3.4a9.09,9.09,0,0,0,.21,1.27,1.06,1.06,0,0,0,.1.3l12.45,27.45s-.68.78-1.3,1.35c-.13.12-3.88,1.66-4.07,1.67-.49,0-4.91-.35-5.24-.44a35,35,0,0,1-3.17-1.52c-.45-.31-2.77-2.32-3.1-2.68a20.07,20.07,0,0,1-1.52-2.09c-.3-.52-1.8-3.74-2.06-4.45-.38-1.06-4.22-14.26-4.49-14.94-.45-1.13-1.5-3.33-2.24-4.85-.4-.83-3.84-6.88-4.19-7.36-.61-.85-1.32-1.77-1.32-1.77s-.31.39-.59.78c-.07.11-1.32,11-1.28,11.12.18.53,1.35,2.87,2.21,4.64.24.5,4.33,12.25,4.45,12.82a30.76,30.76,0,0,1,.6,3.49c.06.59.05,4.62,0,5.08a16.19,16.19,0,0,1-1.15,4.12c-.14.3-2.31,3.24-2.57,3.49a29.32,29.32,0,0,1-2.74,1.88,10.28,10.28,0,0,1-4.36,1.28,18.22,18.22,0,0,1-2.63-.42,10.32,10.32,0,0,1-1.65-.79,18,18,0,0,1-2-1.65,16.17,16.17,0,0,1-2.39-4.67,1,1,0,0,1-.08-.31l-3.16-23.72a.8.8,0,0,0-.09-.31,11.67,11.67,0,0,1-.62-1.37c-.13-.39-.36-2.46-.48-2.85s-2.45-4.5-2.45-4.5-2.6,11.84-2.59,12.09c.06,1.32.95,2.26,1.86,4.58.13.32,1,4.55,1,5.2.15,1.47,2.81,20.36,2.94,20.8s2,4.57,2.24,4.85c.33.48,2.26,2.65,2.69,3a12,12,0,0,0,1.13.9,26.14,26.14,0,0,0,2.73,1.28,23.6,23.6,0,0,0,3,.36,13,13,0,0,0,7.12-3.05c.27-.26,2.36-3,2.76-3.63s2-3.85,2.11-4.29,2.6-11.93,2.6-11.93.85,2.29,1.44,3.62c.16.35,2.8,4.31,3.07,4.6.68.73,2.22,2.19,2.73,2.59s2.84,1.71,3.35,1.94,4.59,1.41,5,1.45a10,10,0,0,0,1.82,0,30.83,30.83,0,0,0,3.44-.67,10.16,10.16,0,0,0,1.64-.84c.31-.21,2.63-2.47,2.84-2.76a24.42,24.42,0,0,0,2.68-6.13c.12-.42.94-6.85.94-7.32s-1.4-7.79-1.55-8.23c-.23-.68-13.08-29.7-13.08-29.7s-.39.34-.72.7"/><path class="cls-4" d="M534.42,214.62c5.29,4.48,10.19,8.63,15.09,12.76,6-6.36,6.25-12.11.85-17.92a50.88,50.88,0,0,0-4.88-4.25c-1.36-1.14-2.78-2.22-4.24-3.37,3.46-7.55,4-15.1,3-22.79-.54-4.48-1.5-8.88-4.21-12.63-4-5.48-9.53-6.22-14.55-1.75-7.52,6.69-12.63,14.8-14.58,24.87-1.08,5.54.51,9.88,4.6,13.33a76,76,0,0,0,8.23,5.56c1.8,1.14,3.69,2.14,6,3.45a53.37,53.37,0,0,1-4.17,5.93c-7.35,7.9-14.32,16.24-22.36,23.37q-16.5,14.63-33.57,28.6l-11.14,9c-.75.59-1.5,1.21-2.25,1.8-11.83,9.35-24.48,17.69-36.84,26.35-3.11,2.17-6.55,3.87-9.84,5.78a259.44,259.44,0,0,0,50.44-24l11.39-7.5A233.14,233.14,0,0,0,534.42,214.62ZM519.8,187.08c-1.59-1.1-1.51-2.72-.44-4.37,4.31-6.61,12.19-6.44,16,.37,2.51,4.46,3,9,1.13,15.23C530.65,194.4,525.17,190.82,519.8,187.08Z"/></g><g class="cls-5"><path class="cls-4" d="M348.93,93.3a81.67,81.67,0,0,0,12.32,7c3.54,1.68,3.67,1.38,6.22-1.87.54-.69,1.16-1.3,2.29-2.52a33.36,33.36,0,0,1,3.62,3.79c4,5.89,8.47,11.55,11.65,17.86,3.86,7.65,6.62,15.85,9.8,23.84.7,1.75.86,3.8,3.61,4.64a23.6,23.6,0,0,0,2.65-4.33A35.35,35.35,0,0,0,403,134c1-8.69,1.61-17.43,2.65-26.13,1-8.24,2.2-16.46,3.61-24.64a19.26,19.26,0,0,1,2.84-6.93c2.37-3.66,5.45-4.32,9.17-2a76.67,76.67,0,0,1,6.58,5.27c.84.67,1.79,1.23,2.89,2a29,29,0,0,0,2.76-13.39c-.12-7-3.95-12.38-10.06-14.16-6.39-1.86-11.75.47-15.74,7a38.79,38.79,0,0,0-5.59,15.39c-1.44,11-2.54,22.1-3.75,33.15-.35,3.11-.64,6.24-.95,9.35a5.34,5.34,0,0,1-2.16-2.59c-3.27-7.15-6.29-14.41-9.88-21.39a65.91,65.91,0,0,0-13-17.41A30.91,30.91,0,0,0,360,69.69c-4-1.21-5-.94-6.85,2.63-2.21,4.2-4.25,8.5-6.2,12.83-1.68,3.72-1.42,5.78,2,8.15"/><path class="cls-4" d="M264.87,241c-.61-.1-1.18-.2-1.79-.32a26.6,26.6,0,0,0-1.93,3.06c-6.4,14.47-13.26,28.78-18.93,43.53-2.73,7.17-3.69,15.13-4.57,22.84a44.51,44.51,0,0,0,3.43,24.37c3.43,7.4,8,13.8,17,14.11,9.5.3,15.21-5.77,19.21-13.53a21.46,21.46,0,0,0,2.38-8.62c.29-6,0-12-.23-18.06-.05-1.52-1-3-2-5.68-1.6,3.74-2.51,6.32-3.76,8.7-2,3.76-3.78,7.76-6.45,11-5,6-10.7,5.31-13.11-2a53.76,53.76,0,0,1-2.48-17.71c.32-15,5.12-29.14,8.9-43.48,1.6-6,2.9-12.14,4.3-18.2"/><path class="cls-4" d="M91.29,171.48c20.52-14.54,41.21-28.87,61.51-43.7,36.25-26.47,71.84-53.89,109.57-78.28,8.2-5.29,11.85-19.49,8.31-29.2-4.05,3.78-7.65,7.87-11.95,11Q211.41,65.75,163.8,99.86c-24.69,17.69-49.4,35.33-74.31,52.7-9.88,6.91-13.17,21.95-6.3,32.4,2.68-8.67,3.83-10.46,8.1-13.48"/><path class="cls-4" d="M261.25,114.56c-.15.18-3,11.14-3.16,12.09-.29,2-.74,5.25-.69,5.82a15.93,15.93,0,0,0,.35,2.16,2,2,0,0,0,.17.52l21.28,46.92s-1.16,1.33-2.21,2.3c-.24.22-6.65,2.84-7,2.86-.82,0-8.39-.6-8.95-.75a56.72,56.72,0,0,1-5.41-2.61c-.76-.52-4.74-4-5.3-4.58a32.12,32.12,0,0,1-2.59-3.57c-.53-.88-3.08-6.39-3.52-7.6-.66-1.81-7.21-24.37-7.68-25.53-.77-1.93-2.57-5.7-3.83-8.3-.68-1.42-6.56-11.75-7.16-12.57-1-1.45-2.26-3-2.26-3s-.53.66-1,1.34c-.13.19-2.27,18.76-2.19,19,.31.9,2.3,4.91,3.77,7.94.41.85,7.4,20.93,7.62,21.9a56.69,56.69,0,0,1,1,6c.11,1,.09,7.9,0,8.69a28,28,0,0,1-2,7c-.24.51-4,5.54-4.39,6a47.54,47.54,0,0,1-4.68,3.21,17.51,17.51,0,0,1-7.46,2.2,34.48,34.48,0,0,1-4.48-.71,17.83,17.83,0,0,1-2.83-1.36A31.62,31.62,0,0,1,203.3,197c-1.75-2-2.81-4.75-4.09-8a1.88,1.88,0,0,1-.14-.53L193.68,148a1.17,1.17,0,0,0-.16-.52,20.1,20.1,0,0,1-1.06-2.35c-.22-.65-.61-4.19-.82-4.86s-4.18-7.7-4.18-7.7S183,152.78,183,153.21c.11,2.27,1.62,3.87,3.19,7.83.22.56,1.66,7.78,1.76,8.89.25,2.51,4.8,34.8,5,35.56s3.48,7.8,3.83,8.29c.56.81,3.87,4.52,4.6,5.18a16.81,16.81,0,0,0,1.94,1.54,43.92,43.92,0,0,0,4.65,2.19,41,41,0,0,0,5.13.62,22.29,22.29,0,0,0,12.17-5.22c.46-.43,4-5.12,4.72-6.21.54-.85,3.36-6.57,3.61-7.31.33-1,4.44-20.4,4.44-20.4s1.45,3.92,2.47,6.18c.27.61,4.77,7.37,5.24,7.87a60.41,60.41,0,0,0,4.67,4.43c.63.49,4.84,2.92,5.72,3.31s7.85,2.41,8.48,2.48a17.68,17.68,0,0,0,3.1,0,54.2,54.2,0,0,0,5.88-1.15,18.13,18.13,0,0,0,2.81-1.43c.54-.37,4.49-4.22,4.85-4.73,1.79-2.49,3.71-7.43,4.58-10.48.2-.71,1.62-11.69,1.61-12.5,0-.62-2.4-13.32-2.65-14.07-.39-1.16-22.35-50.77-22.35-50.77a16.41,16.41,0,0,0-1.24,1.21"/><path class="cls-4" d="M457.12,221.61c9,7.66,17.43,14.75,25.79,21.82,10.17-10.88,10.68-20.71,1.46-30.64a89.06,89.06,0,0,0-8.34-7.26c-2.33-1.95-4.76-3.8-7.25-5.76,5.92-12.91,6.78-25.81,5.18-39-.93-7.65-2.56-15.17-7.21-21.58-6.78-9.38-16.28-10.63-24.86-3-12.84,11.44-21.58,25.29-24.92,42.51-1.84,9.47.87,16.89,7.86,22.78,4.31,3.62,9.31,6.46,14.08,9.51,3.07,1.94,6.3,3.65,10.22,5.9-2.63,3.79-4.49,7.3-7.11,10.12-12.58,13.5-24.48,27.76-38.22,39.95q-28.2,25-57.38,48.88l-19,15.33c-1.29,1-2.56,2.06-3.85,3.08-20.22,16-41.83,30.23-63,45-5.3,3.71-11.18,6.61-16.8,9.88A442.31,442.31,0,0,0,330,348.14l19.47-12.82C391.61,305.63,427.65,268,457.12,221.61Zm-25-47.06c-2.71-1.88-2.58-4.65-.74-7.48,7.36-11.29,20.82-11,27.37.65,4.3,7.62,5.07,15.39,1.94,26C450.68,187.06,441.31,180.94,432.13,174.55Z"/></g></g></g></svg>